# Blender 3.4.1
# www.blender.org
mtllib road.mtl
o Road
v 0.000000 3.000001 -6.755698
v 1.250000 2.000001 -6.755698
v 0.000000 2.000001 -6.755698
v 1.250000 3.000001 -6.755698
v 1.250000 0.200000 0.000000
v 0.000000 0.000000 0.000000
v 1.250000 0.000000 0.000000
v -3.750000 0.000000 0.000000
v -3.750000 3.000000 0.000000
v 1.250000 3.000000 0.000000
v 0.000000 3.000000 0.000000
v 3.750000 4.000001 -4.824292
v 5.000000 2.000001 -4.824292
v 3.750000 2.000001 -4.824292
v 5.000000 4.000001 -4.824292
v 8.750000 4.000000 0.000001
v 5.000000 0.000000 0.000000
v 8.750000 0.000000 0.000000
v 3.750000 0.000000 0.000000
v 3.750000 0.200000 0.000000
v 3.750000 4.000000 0.000001
v 5.000000 4.000000 0.000001
v 3.750000 3.000003 -20.719116
v 5.000000 2.000003 -20.719116
v 3.750000 2.000003 -20.719116
v 5.000000 3.000003 -20.719116
v 5.000000 3.000002 -9.989557
v 3.750000 2.000002 -9.989558
v 5.000000 2.000002 -9.989558
v 3.750000 3.000002 -9.989557
v 0.000000 4.000003 -17.638073
v 1.250000 2.000003 -17.638073
v 0.000000 2.000003 -17.638073
v 1.250000 4.000003 -17.638073
v 1.250000 4.000002 -12.493806
v 0.000000 2.000002 -12.493807
v 1.250000 2.000002 -12.493807
v 0.000000 4.000002 -12.493806
v 0.000000 3.000005 -32.253380
v 1.250000 2.000005 -32.253380
v 0.000000 2.000005 -32.253380
v 1.250000 3.000005 -32.253380
v 1.250000 3.000004 -23.337032
v 0.000000 2.000004 -23.337032
v 1.250000 2.000004 -23.337032
v 0.000000 3.000004 -23.337032
v 3.750000 4.000006 -35.282581
v 5.000000 1.000006 -35.282581
v 3.750000 1.000006 -35.282581
v 5.000000 4.000006 -35.282581
v 5.000000 4.000004 -26.909641
v 3.750000 2.000004 -26.909641
v 5.000000 2.000004 -26.909641
v 3.750000 4.000004 -26.909641
v 5.000000 2.000006 -39.412483
v 3.750000 1.000006 -39.412483
v 5.000000 1.000006 -39.412483
v 3.750000 2.000006 -39.412483
v 0.000000 4.000008 -50.000000
v 1.250000 0.000008 -50.000000
v 0.000000 0.000008 -50.000000
v 1.250000 0.200008 -50.000000
v 1.250000 4.000008 -50.000000
v 1.250000 4.000007 -40.423191
v 0.000000 2.000007 -40.423191
v 1.250000 2.000007 -40.423191
v 0.000000 4.000007 -40.423191
v 3.750000 0.200008 -50.000000
v 5.000000 0.000008 -50.000000
v 3.750000 0.000008 -50.000000
v 5.000000 3.000008 -50.000000
v 3.750000 3.000008 -50.000000
v 5.000000 3.000007 -44.157681
v 3.750000 2.000007 -44.157681
v 5.000000 2.000007 -44.157681
v 3.750000 3.000007 -44.157681
v 0.000000 4.000000 -3.377848
v 1.250000 4.000000 -3.377848
v 1.250000 0.200001 -6.755698
v 1.250000 0.200002 -12.493807
v 1.250000 3.000002 -9.624751
v 3.750000 3.000001 -7.406925
v 3.750000 0.200001 -4.824292
v 3.750000 0.200002 -9.989558
v 0.000000 3.000002 -9.624751
v 3.750000 5.000000 -2.412145
v 5.000000 5.000000 -2.412145
v 5.000000 3.000001 -7.406925
v 5.000000 0.000002 -9.989558
v 5.000000 0.000001 -4.824292
v 0.000000 0.000001 -6.755698
v 0.000000 0.000002 -12.493807
v 3.750000 4.000002 -15.354336
v 3.750000 0.200003 -20.719116
v 5.000000 0.000003 -20.719116
v 5.000000 4.000002 -15.354336
v 3.750000 3.000004 -23.814379
v 3.750000 0.200004 -26.909641
v 5.000000 0.000004 -26.909641
v 5.000000 3.000004 -23.814379
v 0.000000 3.000003 -20.487553
v 1.250000 3.000003 -20.487553
v 0.000000 5.000002 -15.065939
v 0.000000 0.000003 -17.638073
v 1.250000 0.200003 -17.638073
v 1.250000 5.000002 -15.065939
v 0.000000 0.000004 -23.337032
v 1.250000 0.200004 -23.337032
v 0.000000 4.000004 -27.795206
v 0.000000 0.000005 -32.253380
v 3.750000 5.000005 -31.096111
v 3.750000 0.200006 -35.282581
v 5.000000 0.000006 -35.282581
v 5.000000 5.000005 -31.096111
v 1.250000 0.200005 -32.253380
v 1.250000 4.000004 -27.795206
v 1.250000 0.200007 -40.423191
v 1.250000 3.000006 -36.338284
v 3.750000 3.000007 -41.785080
v 5.000000 3.000007 -41.785080
v 0.000000 3.000006 -36.338284
v 0.000000 0.000007 -40.423191
v 3.750000 2.000006 -37.347530
v 5.000000 2.000006 -37.347530
v 3.750000 0.200006 -39.412483
v 3.750000 0.200007 -44.157681
v 5.000000 0.000006 -39.412483
v 5.000000 0.000007 -44.157681
v 5.000000 4.000008 -47.078838
v 1.250000 5.000007 -45.211594
v 3.750000 4.000008 -47.078838
v 0.000000 5.000007 -45.211594
v 3.437500 0.000000 0.000000
v 1.562500 0.000008 -50.000000
v 1.562500 0.000000 0.000000
v 3.437500 0.000008 -50.000000
v 1.562500 0.200000 0.000000
v 1.562500 0.200008 -50.000000
v 3.437500 0.200008 -50.000000
v 3.437500 0.200000 0.000000
v 8.750000 5.000000 -2.412145
v -3.750000 4.000000 -3.377848
v -8.628448 0.000000 0.000000
v -8.628448 3.000000 0.000000
v 23.750000 4.000000 0.000001
v 18.518444 0.000000 0.000000
v 23.750000 0.000000 0.000000
v 18.518444 4.000000 0.000001
v 13.286890 4.000000 0.000001
v 23.750000 5.000000 -2.412145
v -13.689224 3.000000 0.000000
v -18.750000 4.000000 -3.377848
v -18.750000 3.000000 0.000000
v -13.689224 0.000000 0.000000
v -18.750000 0.000000 0.000000
v 13.286890 0.000000 0.000000
vn -0.0000 -0.0000 -1.0000
vn -0.0000 -0.0000 1.0000
vn -0.0000 1.0000 -0.0000
vn -0.0000 0.9589 0.2839
vn 1.0000 -0.0000 -0.0000
vn -0.0001 1.0000 -0.0000
vn -1.0000 -0.0000 -0.0000
vn -0.0000 0.9443 0.3291
vn -0.0000 0.9238 0.3830
vn -0.0000 0.9325 0.3611
vn -0.0000 0.9436 0.3311
vn -0.0000 0.9831 0.1832
vn -0.0000 1.0000 0.0001
vn -0.0000 0.9320 0.3624
vn -0.0000 0.9516 0.3074
vn -0.0000 1.0000 -0.0001
vn -0.0000 0.9758 0.2189
vn -0.0000 0.9726 0.2323
vn -0.0000 0.9215 0.3884
vn -0.0000 0.9000 0.4359
vn -0.0000 0.9713 0.2378
vn -0.0000 0.9789 0.2044
vn -0.0000 0.9461 0.3239
vn -0.0000 0.9238 -0.3830
vn -0.0000 0.9325 -0.3611
vn -0.0000 0.9831 -0.1832
vn -0.0000 0.9443 -0.3291
vn -0.0000 0.9589 -0.2839
vn -0.0000 0.9436 -0.3311
vn -0.0000 0.9320 -0.3624
vn -0.0000 0.9516 -0.3074
vn -0.0000 0.9713 -0.2378
vn -0.0000 0.9215 -0.3884
vn -0.0000 0.9789 -0.2044
vn -0.0000 0.9758 -0.2189
vn -0.0000 0.9461 -0.3239
vn -0.0000 0.9726 -0.2323
vn -0.0000 0.9000 -0.4359
vn -0.0000 -0.0000 -0.0000
vt 0.800322 0.831973
vt 0.783299 0.019881
vt 0.784417 0.851854
vt 0.675947 0.633649
vt 0.108152 0.967611
vt 0.431811 0.885713
vt 0.784417 0.831973
vt 0.451692 0.885713
vt 0.047714 0.967611
vt 0.800322 0.851854
vt 0.200398 0.794531
vt 0.675947 0.633649
vt 0.783299 0.000000
vt 0.155865 0.901978
vt 0.357855 0.791351
vt 0.988668 0.794533
vt 0.377735 0.794533
vt 0.357855 0.794533
vt 0.437378 0.794533
vt 0.675947 0.633649
vt 0.437378 0.746819
vt 0.675947 0.079523
vt 0.357855 0.746819
vt 0.675947 0.633649
vt 0.675947 0.000000
vt 0.200398 0.901978
vt 0.675947 0.633649
vt 0.675947 0.019881
vt 0.803180 0.282254
vt 0.232207 0.794531
vt 0.675947 0.633649
vt 0.752608 0.636185
vt 0.823061 0.314063
vt 0.471572 0.876610
vt 0.863940 0.318093
vt 0.803180 0.314063
vt 0.863940 0.823696
vt 0.491453 0.876610
vt 0.675947 0.633649
vt 0.823061 0.282254
vt 0.752608 0.616304
vt 0.675947 0.633649
vt 0.675947 0.556662
vt 0.238569 0.730911
vt 0.298212 0.794533
vt 0.675947 0.633649
vt 0.238569 0.794533
vt 0.318092 0.794533
vt 0.292645 0.871260
vt 0.318092 0.791351
vt 0.988667 0.794533
vt 0.675947 0.633649
vt 0.318092 0.730911
vt 0.675947 0.633649
vt 0.675947 0.636185
vt 0.232207 0.871260
vt 0.675947 0.633649
vt 0.675947 0.616304
vt 0.636583 0.826340
vt 0.848036 0.570894
vt 0.675947 0.633649
vt 0.312526 0.794531
vt 0.620678 0.846221
vt 0.675947 0.633649
vt 0.784417 0.831974
vt 0.392049 0.892902
vt 0.620678 0.826340
vt 0.675947 0.633649
vt 0.723660 0.867813
vt 0.411930 0.892902
vt 0.636583 0.846221
vt 0.848036 0.570894
vt 0.675947 0.633649
vt 0.292645 0.794531
vt 0.652488 0.826340
vt 0.848036 0.400245
vt 0.292645 0.965031
vt 0.636583 0.846221
vt 0.863940 0.741545
vt 0.491453 0.794531
vt 0.636583 0.826340
vt 0.863940 0.400245
vt 0.471572 0.794531
vt 0.652488 0.846221
vt 0.848036 0.741545
vt 0.312526 0.965031
vt 0.640559 0.794531
vt 0.015904 0.794531
vt 0.675947 0.633649
vt 0.511334 0.794531
vt 0.660440 0.826340
vt 0.451692 0.885092
vt 0.675947 0.634850
vt 0.951888 0.232452
vt 0.640559 0.826340
vt 0.471572 0.885092
vt 0.675947 0.633649
vt 0.924378 0.803345
vt 0.660440 0.794531
vt 0.139961 0.794531
vt 0.675947 0.636185
vt 0.491453 0.794531
vt 0.823061 0.282253
vt 0.139961 0.876348
vt 0.491453 0.876276
vt 0.842941 0.314063
vt 0.047714 0.876348
vt 0.451692 0.794531
vt 0.823061 0.314063
vt 0.108152 0.876348
vt 0.431811 0.794531
vt 0.842941 0.282253
vt 0.015904 0.876348
vt 0.511334 0.876276
vt 0.768512 0.831973
vt 0.908473 0.570892
vt 0.675947 0.633649
vt 0.352288 0.794533
vt 0.752608 0.851854
vt 0.675947 0.633649
vt 0.831013 0.000000
vt 0.372168 0.924355
vt 0.752608 0.831973
vt 0.675947 0.633649
vt 0.800322 0.600346
vt 0.392049 0.924355
vt 0.768512 0.851854
vt 0.967793 0.000000
vt 0.675947 0.633649
vt 0.332407 0.794533
vt 0.668392 0.826340
vt 0.967793 0.141811
vt 0.332407 0.936218
vt 0.652488 0.846221
vt 0.924378 0.712704
vt 0.471572 0.794531
vt 0.652488 0.826340
vt 0.951888 0.141811
vt 0.451692 0.794531
vt 0.668392 0.846221
vt 0.908473 0.712704
vt 0.352288 0.936218
vt 0.600798 0.794531
vt 0.691851 0.636185
vt 0.675947 0.636185
vt 0.372169 0.794533
vt 0.620678 0.842245
vt 0.675947 0.636185
vt 0.556066 0.860161
vt 0.907356 0.000000
vt 0.600798 0.842245
vt 0.675947 0.634182
vt 0.575946 0.860161
vt 0.943464 0.552166
vt 0.620678 0.794531
vt 0.816226 0.600346
vt 0.675947 0.636185
vt 0.352288 0.794533
vt 0.783299 0.282253
vt 0.816226 0.733513
vt 0.352288 0.927586
vt 0.803180 0.314063
vt 0.723660 0.769352
vt 0.411930 0.794531
vt 0.783299 0.314063
vt 0.784417 0.733513
vt 0.392049 0.794531
vt 0.803180 0.282253
vt 0.691851 0.769352
vt 0.372169 0.927586
vt 0.784417 0.831973
vt 0.536185 0.869938
vt 0.891451 0.065685
vt 0.768513 0.851853
vt 0.943464 0.486485
vt 0.575946 0.794533
vt 0.768513 0.831973
vt 0.907356 0.065685
vt 0.556066 0.794533
vt 0.784417 0.851853
vt 0.556066 0.869938
vt 0.927559 0.486485
vt 0.511334 0.794531
vt 0.768512 0.318092
vt 0.332407 0.794533
vt 0.531215 0.858149
vt 0.357855 0.000000
vt 0.511334 0.858149
vt 0.832131 0.318092
vt 0.377735 0.000000
vt 0.859641 0.282253
vt 0.531215 0.854969
vt 0.988668 0.000000
vt 0.531215 0.794531
vt 0.799203 0.282253
vt 0.312526 0.794533
vt 0.620678 0.794531
vt 0.799203 0.129936
vt 0.312526 0.946712
vt 0.640559 0.826340
vt 0.800322 0.470409
vt 0.392049 0.794533
vt 0.620678 0.826340
vt 0.831013 0.129936
vt 0.372168 0.794533
vt 0.640559 0.794531
vt 0.768512 0.470409
vt 0.332407 0.946712
vt 0.956187 0.318092
vt 0.580917 0.839064
vt 0.988667 0.000000
vt 0.600798 0.842245
vt 0.923260 0.234074
vt 0.298212 0.000000
vt 0.983697 0.950321
vt 0.783299 0.314060
vt 0.675947 0.633649
vt 0.580917 0.842245
vt 0.318092 0.000000
vt 0.600798 0.794531
vt 0.875546 0.234074
vt 0.411930 0.794533
vt 0.580917 0.794531
vt 0.911654 0.318092
vt 0.431811 0.794533
vt 0.848036 0.823695
vt 0.875546 0.141155
vt 0.411930 0.887371
vt 0.832131 0.843576
vt 0.927559 0.411011
vt 0.556066 0.794533
vt 0.832131 0.823695
vt 0.891451 0.141155
vt 0.536185 0.794533
vt 0.848036 0.843576
vt 0.911654 0.411011
vt 0.431811 0.887371
vt 0.730291 0.019881
vt 0.216303 0.848254
vt 0.730291 0.000000
vt 0.155865 0.794531
vt 0.675947 0.633649
vt 0.079523 0.967611
vt 0.988668 0.687180
vt 0.079523 0.876348
vt 0.988668 0.595997
vt 0.124056 0.921980
vt 0.431811 0.839455
vt 0.848036 0.782619
vt 0.491453 0.834903
vt 0.892569 0.823696
vt 0.292645 0.794531
vt 0.675947 0.633649
vt 0.892569 0.741545
vt 0.675947 0.633649
vt 0.956187 0.318092
vt 0.031809 0.921980
vt 0.451692 0.839455
vt 0.216303 0.832895
vt 0.714945 0.636185
vt 0.714945 0.616304
vt 0.848036 0.359169
vt 0.471572 0.834903
vt 0.895749 0.400245
vt 0.983697 0.314530
vt 0.675947 0.633649
vt 0.895749 0.318093
vt 0.675947 0.633649
vt 0.983697 0.232451
vt 0.079523 0.967611
vt 0.377735 0.687180
vt 0.079523 0.876348
vt 0.377735 0.595997
vt 0.832131 0.656219
vt 0.312526 0.879112
vt 0.892569 0.570894
vt 0.752289 0.867813
vt 0.956187 0.488591
vt 0.675947 0.633649
vt 0.895749 0.570894
vt 0.752608 0.831974
vt 0.675947 0.633649
vt 0.832131 0.485569
vt 0.292645 0.879112
vt 0.707756 0.818581
vt 0.411930 0.843048
vt 0.752289 0.769352
vt 0.675947 0.633649
vt 0.783299 0.039980
vt 0.752608 0.733513
vt 0.675947 0.633649
vt 0.800322 0.782742
vt 0.392049 0.843048
vt 0.908473 0.758022
vt 0.471572 0.839144
vt 0.967793 0.187130
vt 0.451692 0.839144
vt 0.000000 0.835440
vt 0.511334 0.834736
vt 0.079523 0.794531
vt 0.675947 0.633649
vt 0.956187 0.803345
vt 0.377735 0.514252
vt 0.079523 0.794531
vt 0.675947 0.633648
vt 0.923260 0.232452
vt 0.988668 0.514252
vt 0.155865 0.835440
vt 0.491453 0.834736
vt 0.956187 0.712704
vt 0.377735 0.423691
vt 0.923260 0.141811
vt 0.988668 0.423691
vt 0.892569 0.641796
vt 0.352288 0.864708
vt 0.956187 0.570892
vt 0.675947 0.633649
vt 0.832131 0.600346
vt 0.377735 0.282005
vt 0.675947 0.702770
vt 0.372169 0.860390
vt 0.752289 0.636185
vt 0.956187 0.552166
vt 0.783299 0.173031
vt 0.675947 0.633649
vt 0.752608 0.600346
vt 0.675947 0.636185
vt 0.923260 0.000000
vt 0.675947 0.633649
vt 0.783299 0.080193
vt 0.832131 0.666931
vt 0.352288 0.860390
vt 0.923260 0.000000
vt 0.675947 0.633649
vt 0.859641 0.000000
vt 0.988668 0.282005
vt 0.983698 0.070904
vt 0.332407 0.864708
vt 0.859641 0.129936
vt 0.988668 0.152180
vt 0.815108 0.064968
vt 0.372168 0.858776
vt 0.911654 0.448746
vt 0.556066 0.831566
vt 0.875546 0.103420
vt 0.536185 0.831566
vt 0.784417 0.535378
vt 0.392049 0.858776
vt 0.832131 0.470409
vt 0.377735 0.152180
vt 0.927559 0.519325
vt 0.575946 0.826679
vt 0.891451 0.032841
vt 0.556066 0.826679
vt 0.956187 0.486485
vt 0.675947 0.633649
vt 0.956187 0.411011
vt 0.988667 0.092838
vt 0.956187 0.861045
vt 0.783299 0.314062
vt 0.675947 0.633649
vt 0.923260 0.065685
vt 0.783299 0.145821
vt 0.675947 0.633649
vt 0.923260 0.141155
vt 0.675947 0.633649
vt 0.859642 0.187614
vt 0.411930 0.840282
vt 0.783299 0.206097
vt 0.312526 0.869957
vt 0.895750 0.364552
vt 0.431811 0.840282
vt 0.752608 0.394249
vt 0.332407 0.869957
vt 0.323063 0.794533
vt 0.996819 0.795231
vt 0.536185 0.858149
vt 0.352884 0.000000
vt 0.996819 0.000000
vt 0.352884 0.794533
vt 0.996819 0.795231
vt 0.575947 0.842245
vt 0.323063 0.000000
vt 0.996819 0.000000
vt 0.352884 0.791351
vt 0.983697 0.794533
vt 1.000000 0.795231
vt 0.536185 0.854969
vt 0.983698 0.000000
vt 1.000000 0.000000
vt 0.575947 0.839064
vt 0.993638 0.000000
vt 0.323063 0.791351
vt 0.993638 0.794533
vt 0.993638 0.795231
vt 0.714945 0.556662
vt 0.730291 0.079523
vt 0.514967 0.794533
vt 0.675947 0.157113
vt 0.514967 0.746819
vt 0.000000 0.730911
vt 0.675947 0.318092
vt 0.083206 0.794533
vt 0.000000 0.794533
vt 0.675947 0.401299
vt 0.083206 0.730911
vt 0.675947 0.484505
vt 0.166412 0.730911
vt 0.714945 0.318092
vt 0.675947 0.237603
vt 0.595457 0.746819
vt 0.730291 0.318093
vt 0.675947 0.318093
vt 0.675947 0.746819
vt 0.595457 0.794533
vt 0.675947 0.794533
vt 0.166412 0.794533
s 0
usemtl Houses
f 1/1/1 2/3/1 3/7/1
f 2/3/1 1/1/1 4/10/1
f 5/15/2 6/17/2 7/18/2
f 6/17/2 5/15/2 8/19/2
f 8/19/2 5/15/2 9/21/2
f 9/21/2 5/15/2 10/23/2
f 9/20/3 10/24/3 11/27/3
f 12/29/1 13/33/1 14/36/1
f 13/33/1 12/29/1 15/40/1
f 16/44/2 17/45/2 18/47/2
f 17/45/2 16/44/2 19/48/2
f 19/48/2 16/44/2 20/50/2
f 20/50/2 16/44/2 21/53/2
f 21/54/3 16/42/3 22/57/3
f 23/59/1 24/63/1 25/67/1
f 24/63/1 23/59/1 26/71/1
f 27/75/2 28/78/2 29/81/2
f 28/78/2 27/75/2 30/84/2
f 31/87/1 32/91/1 33/95/1
f 32/91/1 31/87/1 34/99/1
f 35/103/2 36/106/2 37/109/2
f 36/106/2 35/103/2 38/112/2
f 39/115/1 40/119/1 41/123/1
f 40/119/1 39/115/1 42/127/1
f 43/131/2 44/134/2 45/137/2
f 44/134/2 43/131/2 46/140/2
f 47/143/1 48/147/1 49/151/1
f 48/147/1 47/143/1 50/155/1
f 51/159/2 52/162/2 53/165/2
f 52/162/2 51/159/2 54/168/2
f 55/171/2 56/174/2 57/177/2
f 56/174/2 55/171/2 58/180/2
f 59/183/1 60/186/1 61/188/1
f 60/186/1 59/183/1 62/192/1
f 62/192/1 59/183/1 63/194/1
f 64/197/2 65/200/2 66/203/2
f 65/200/2 64/197/2 67/206/2
f 68/210/1 69/212/1 70/218/1
f 69/212/1 68/210/1 71/220/1
f 71/220/1 68/210/1 72/223/1
f 73/226/2 74/229/2 75/232/2
f 74/229/2 73/226/2 76/235/2
f 10/25/4 77/238/4 11/28/4
f 77/238/4 10/25/4 78/240/4
f 79/241/5 10/26/5 5/14/5
f 10/26/5 79/241/5 78/239/5
f 78/239/5 79/241/5 4/11/5
f 4/12/6 79/242/3 2/4/3
f 80/245/5 2/5/5 79/243/5
f 2/5/5 80/245/5 81/247/5
f 81/247/5 80/245/5 37/110/5
f 82/249/7 83/251/7 14/37/7
f 83/251/7 82/249/7 84/254/7
f 84/254/7 82/249/7 28/79/7
f 2/6/8 85/258/8 3/8/8
f 85/258/8 2/6/8 81/248/8
f 22/58/9 86/260/9 21/55/9
f 86/260/9 22/58/9 87/261/9
f 13/34/10 82/250/10 14/38/10
f 82/250/10 13/34/10 88/263/10
f 89/264/5 13/35/5 90/267/5
f 13/35/5 89/264/5 88/262/5
f 88/262/5 89/264/5 29/82/5
f 86/259/7 20/49/7 21/56/7
f 20/49/7 86/259/7 83/252/7
f 83/252/7 86/259/7 12/30/7
f 83/253/3 12/31/6 14/39/3
f 85/257/7 91/270/7 3/9/7
f 91/270/7 85/257/7 92/272/7
f 92/272/7 85/257/7 36/107/7
f 93/274/7 28/79/7 30/85/7
f 28/79/7 93/274/7 84/254/7
f 84/254/7 93/274/7 94/276/7
f 94/276/7 93/274/7 23/60/7
f 94/279/3 23/61/6 25/68/3
f 95/280/5 29/82/5 89/264/5
f 29/82/5 95/280/5 27/76/5
f 27/76/5 95/280/5 96/283/5
f 96/283/5 95/280/5 26/72/5
f 26/73/6 95/282/3 24/64/3
f 97/285/7 94/277/7 25/69/7
f 94/277/7 97/285/7 98/287/7
f 98/287/7 97/285/7 52/163/7
f 99/290/5 24/65/5 95/281/5
f 24/65/5 99/290/5 100/292/5
f 100/292/5 99/290/5 53/166/5
f 32/92/11 101/295/11 33/96/11
f 101/295/11 32/92/11 102/297/11
f 27/77/12 93/275/12 30/86/12
f 93/275/12 27/77/12 96/284/12
f 103/298/7 36/107/7 38/113/7
f 36/107/7 103/298/7 92/272/7
f 92/272/7 103/298/7 104/300/7
f 104/300/7 103/298/7 31/88/7
f 104/301/3 31/89/6 33/97/3
f 105/304/5 37/110/5 80/245/5
f 37/110/5 105/304/5 35/104/5
f 35/104/5 105/304/5 106/308/5
f 106/308/5 105/304/5 34/100/5
f 34/101/13 105/305/3 32/93/3
f 35/105/14 103/299/14 38/114/14
f 103/299/14 35/105/14 106/309/14
f 101/294/7 104/302/7 33/98/7
f 104/302/7 101/294/7 107/310/7
f 107/310/7 101/294/7 44/135/7
f 24/66/15 97/286/15 25/70/15
f 97/286/15 24/66/15 100/293/15
f 108/312/5 32/94/5 105/306/5
f 32/94/5 108/312/5 102/296/5
f 102/296/5 108/312/5 45/138/5
f 109/314/7 44/135/7 46/141/7
f 44/135/7 109/314/7 107/310/7
f 107/310/7 109/314/7 110/316/7
f 110/316/7 109/314/7 39/116/7
f 110/317/3 39/117/6 41/124/3
f 111/320/7 52/163/7 54/169/7
f 52/163/7 111/320/7 98/287/7
f 98/287/7 111/320/7 112/322/7
f 112/322/7 111/320/7 47/144/7
f 112/325/3 47/145/16 49/152/3
f 113/326/5 53/166/5 99/290/5
f 53/166/5 113/326/5 51/160/5
f 51/160/5 113/326/5 114/331/5
f 114/331/5 113/326/5 50/156/5
f 50/157/13 113/327/3 48/148/3
f 115/333/5 45/138/5 108/312/5
f 45/138/5 115/333/5 43/132/5
f 43/132/5 115/333/5 116/337/5
f 116/337/5 115/333/5 42/128/5
f 42/129/6 115/334/3 40/120/3
f 43/133/17 109/315/17 46/142/17
f 109/315/17 43/133/17 116/338/17
f 117/339/5 40/121/5 115/335/5
f 40/121/5 117/339/5 118/341/5
f 118/341/5 117/339/5 66/204/5
f 51/161/18 111/321/18 54/170/18
f 111/321/18 51/161/18 114/332/18
f 55/172/19 119/344/19 58/181/19
f 119/344/19 55/172/19 120/346/19
f 121/347/7 110/318/7 41/125/7
f 110/318/7 121/347/7 122/349/7
f 122/349/7 121/347/7 65/201/7
f 48/149/20 123/352/20 49/153/20
f 123/352/20 48/149/20 124/354/20
f 119/343/7 56/175/7 58/182/7
f 56/175/7 119/343/7 125/355/7
f 125/355/7 119/343/7 126/357/7
f 126/357/7 119/343/7 74/230/7
f 123/351/7 112/323/7 49/154/7
f 112/323/7 123/351/7 125/355/7
f 125/355/7 123/351/7 56/175/7
f 127/362/5 48/150/5 113/328/5
f 48/150/5 127/362/5 124/353/5
f 124/353/5 127/362/5 57/178/5
f 128/365/5 57/178/5 127/362/5
f 57/178/5 128/365/5 55/173/5
f 55/173/5 128/365/5 120/345/5
f 120/345/5 128/365/5 75/233/5
f 40/122/21 121/348/21 41/126/21
f 121/348/21 40/122/21 118/342/21
f 69/213/5 75/233/5 128/365/5
f 75/233/5 69/213/5 73/227/5
f 73/227/5 69/213/5 129/367/5
f 129/367/5 69/213/5 71/221/5
f 62/191/5 66/204/5 117/339/5
f 66/204/5 62/191/5 64/198/5
f 64/198/5 62/191/5 130/369/5
f 130/369/5 62/191/5 63/195/5
f 131/371/7 74/230/7 76/236/7
f 74/230/7 131/371/7 126/357/7
f 126/357/7 131/371/7 68/209/7
f 68/209/7 131/371/7 72/224/7
f 132/373/7 65/201/7 67/207/7
f 65/201/7 132/373/7 122/349/7
f 122/349/7 132/373/7 61/189/7
f 61/189/7 132/373/7 59/184/7
f 64/199/22 132/374/22 67/208/22
f 132/374/22 64/199/22 130/370/22
f 73/228/23 131/372/23 76/237/23
f 131/372/23 73/228/23 129/368/23
f 87/261/24 12/32/24 86/260/24
f 12/32/24 87/261/24 15/41/24
f 88/263/25 28/80/25 82/250/25
f 28/80/25 88/263/25 29/83/25
f 96/284/26 23/62/26 93/275/26
f 23/62/26 96/284/26 26/74/26
f 81/248/27 36/108/27 85/258/27
f 36/108/27 81/248/27 37/111/27
f 78/240/28 1/2/28 77/238/28
f 1/2/28 78/240/28 4/13/28
f 102/297/29 44/136/29 101/295/29
f 44/136/29 102/297/29 45/139/29
f 106/309/30 31/90/30 103/299/30
f 31/90/30 106/309/30 34/102/30
f 100/293/31 52/164/31 97/286/31
f 52/164/31 100/293/31 53/167/31
f 118/342/32 65/202/32 121/348/32
f 65/202/32 118/342/32 66/205/32
f 120/346/33 74/231/33 119/344/33
f 74/231/33 120/346/33 75/234/33
f 130/370/34 59/185/34 132/374/34
f 59/185/34 130/370/34 63/196/34
f 116/338/35 39/118/35 109/315/35
f 39/118/35 116/338/35 42/130/35
f 129/368/36 72/225/36 131/372/36
f 72/225/36 129/368/36 71/222/36
f 114/332/37 47/146/37 111/321/37
f 47/146/37 114/332/37 50/158/37
f 124/354/38 56/176/38 123/352/38
f 56/176/38 124/354/38 57/179/38
f 62/192/1 134/377/1 60/186/1
f 134/377/1 62/192/1 138/388/1
f 137/385/2 7/18/2 135/380/2
f 7/18/2 137/385/2 5/15/2
f 20/50/2 133/375/2 19/48/2
f 133/375/2 20/50/2 140/393/2
f 139/391/1 70/218/1 136/382/1
f 70/218/1 139/391/1 68/210/1
f 7/18/3 91/271/3 6/17/3
f 91/271/3 7/18/3 92/273/3
f 92/273/3 7/18/3 104/303/3
f 104/303/3 7/18/3 107/311/3
f 107/311/3 7/18/3 110/319/3
f 110/319/3 7/18/3 122/350/3
f 122/350/3 7/18/3 61/190/3
f 61/190/3 7/18/3 60/187/3
f 60/187/3 7/18/3 135/380/3
f 60/187/3 135/380/3 134/378/3
f 19/48/3 136/383/3 133/375/3
f 136/383/3 19/48/3 70/219/3
f 70/219/3 19/48/3 17/45/3
f 70/219/3 17/45/3 69/214/3
f 69/217/39 17/46/39 90/268/39
f 69/215/3 90/269/3 89/265/3
f 69/217/3 89/266/3 95/282/3
f 69/217/3 95/282/3 99/291/3
f 69/217/39 99/291/39 113/329/39
f 69/216/3 113/330/3 127/363/3
f 69/217/39 127/364/39 128/366/39
f 16/43/9 87/261/9 22/58/9
f 87/261/9 16/43/9 141/396/9
f 11/28/4 142/397/4 9/22/4
f 142/397/4 11/28/4 77/238/4
f 9/21/2 143/398/2 8/19/2
f 143/398/2 9/21/2 144/400/2
f 145/401/2 146/403/2 147/404/2
f 146/403/2 145/401/2 148/406/2
f 149/407/9 141/396/9 16/43/9
f 141/396/9 149/407/9 150/409/9
f 150/409/9 149/407/9 148/405/9
f 150/409/9 148/405/9 145/402/9
f 151/410/4 152/412/4 153/413/4
f 152/412/4 151/410/4 142/397/4
f 142/397/4 151/410/4 144/399/4
f 142/397/4 144/399/4 9/22/4
f 144/400/2 154/415/2 143/398/2
f 154/415/2 144/400/2 151/411/2
f 151/411/2 155/416/2 154/415/2
f 155/416/2 151/411/2 153/414/2
f 149/408/2 18/47/2 156/417/2
f 18/47/2 149/408/2 16/44/2
f 148/406/2 156/417/2 146/403/2
f 156/417/2 148/406/2 149/408/2
usemtl Asphalt
f 133/375/3 134/378/3 135/380/3
f 134/378/3 133/375/3 136/383/3
usemtl Pavement
f 137/386/3 79/244/3 5/16/3
f 79/244/3 137/386/3 80/246/3
f 80/246/3 137/386/3 105/307/3
f 105/307/3 137/386/3 108/313/3
f 108/313/3 137/386/3 115/336/3
f 115/336/3 137/386/3 117/340/3
f 117/340/3 137/386/3 62/193/3
f 62/193/3 137/386/3 138/389/3
f 134/379/5 137/387/5 135/381/5
f 137/387/5 134/379/5 138/390/5
f 20/51/3 139/392/3 140/394/3
f 139/392/3 20/51/3 126/358/3
f 139/392/3 126/358/3 68/211/3
f 126/361/39 20/52/39 83/253/39
f 126/361/5 83/253/5 84/255/5
f 126/359/7 84/256/7 94/278/7
f 126/361/39 94/279/39 98/288/39
f 126/360/7 98/289/7 112/324/7
f 126/361/5 112/325/5 125/356/5
f 139/392/7 133/376/7 140/395/7
f 133/376/7 139/392/7 136/384/7
